<?xml version="1.0" encoding="UTF-8" standalone="no"?>
<!DOCTYPE svg PUBLIC "-//W3C//DTD SVG 1.1//EN"
 "http://www.w3.org/Graphics/SVG/1.1/DTD/svg11.dtd">
<!-- Generated by graphviz version 2.43.0 (0)
 -->
<!-- Title: finite_state_machine Pages: 1 -->
<svg width="827pt" height="609pt"
 viewBox="0.00 0.00 827.00 609.00" xmlns="http://www.w3.org/2000/svg" xmlns:xlink="http://www.w3.org/1999/xlink">
<g id="graph0" class="graph" transform="scale(1 1) rotate(0) translate(4 605)">
<title>finite_state_machine</title>
<polygon fill="white" stroke="transparent" points="-4,4 -4,-605 823,-605 823,4 -4,4"/>
<!-- 9 -->
<g id="node1" class="node">
<title>9</title>
<ellipse fill="none" stroke="black" cx="18" cy="-378" rx="18" ry="18"/>
<text text-anchor="middle" x="18" y="-374.3" font-family="Helvetica,Arial,sans-serif" font-size="14.00">9</text>
</g>
<!-- 1 -->
<g id="node2" class="node">
<title>1</title>
<ellipse fill="none" stroke="black" cx="139" cy="-378" rx="18" ry="18"/>
<text text-anchor="middle" x="139" y="-374.3" font-family="Helvetica,Arial,sans-serif" font-size="14.00">1</text>
</g>
<!-- 9&#45;&gt;1 -->
<g id="edge1" class="edge">
<title>9&#45;&gt;1</title>
<path fill="none" stroke="black" d="M33.72,-368.46C39.75,-365.08 46.96,-361.7 54,-360 75.17,-354.88 81.83,-354.88 103,-360 106.74,-360.91 110.53,-362.28 114.16,-363.88"/>
<polygon fill="black" stroke="black" points="112.78,-367.1 123.28,-368.46 115.91,-360.85 112.78,-367.1"/>
<text text-anchor="middle" x="78.5" y="-363.8" font-family="Helvetica,Arial,sans-serif" font-size="14.00">0/524</text>
</g>
<!-- 3 -->
<g id="node3" class="node">
<title>3</title>
<ellipse fill="none" stroke="black" cx="801" cy="-518" rx="18" ry="18"/>
<text text-anchor="middle" x="801" y="-514.3" font-family="Helvetica,Arial,sans-serif" font-size="14.00">3</text>
</g>
<!-- 9&#45;&gt;3 -->
<g id="edge2" class="edge">
<title>9&#45;&gt;3</title>
<path fill="none" stroke="black" d="M20.59,-395.87C24.37,-434.77 35.02,-525.48 54,-549 79.62,-580.75 97.21,-586 138,-586 138,-586 138,-586 681,-586 720.21,-586 758.24,-557.83 780.37,-537.75"/>
<polygon fill="black" stroke="black" points="782.89,-540.19 787.78,-530.79 778.09,-535.09 782.89,-540.19"/>
<text text-anchor="middle" x="412.5" y="-589.8" font-family="Helvetica,Arial,sans-serif" font-size="14.00">0/1053</text>
</g>
<!-- 4 -->
<g id="node4" class="node">
<title>4</title>
<ellipse fill="none" stroke="black" cx="559" cy="-109" rx="18" ry="18"/>
<text text-anchor="middle" x="559" y="-105.3" font-family="Helvetica,Arial,sans-serif" font-size="14.00">4</text>
</g>
<!-- 9&#45;&gt;4 -->
<g id="edge3" class="edge">
<title>9&#45;&gt;4</title>
<path fill="none" stroke="black" d="M18.54,-359.87C17.27,-296.96 16.09,-89.09 54,-37 78,-4.01 97.21,0 138,0 138,0 138,0 413.5,0 464.87,0 484.45,-3.05 523,-37 536.3,-48.72 545.04,-66.64 550.46,-81.66"/>
<polygon fill="black" stroke="black" points="547.24,-83.09 553.69,-91.5 553.89,-80.9 547.24,-83.09"/>
<text text-anchor="middle" x="266.5" y="-3.8" font-family="Helvetica,Arial,sans-serif" font-size="14.00">556/766</text>
</g>
<!-- 1&#45;&gt;9 -->
<g id="edge14" class="edge">
<title>1&#45;&gt;9</title>
<path fill="none" stroke="black" d="M120.98,-378C101.47,-378 69.21,-378 46.2,-378"/>
<polygon fill="black" stroke="black" points="46.05,-374.5 36.05,-378 46.05,-381.5 46.05,-374.5"/>
<text text-anchor="middle" x="78.5" y="-381.8" font-family="Helvetica,Arial,sans-serif" font-size="14.00">123/524</text>
</g>
<!-- 7 -->
<g id="node5" class="node">
<title>7</title>
<ellipse fill="none" stroke="black" cx="559" cy="-421" rx="18" ry="18"/>
<text text-anchor="middle" x="559" y="-417.3" font-family="Helvetica,Arial,sans-serif" font-size="14.00">7</text>
</g>
<!-- 1&#45;&gt;7 -->
<g id="edge15" class="edge">
<title>1&#45;&gt;7</title>
<path fill="none" stroke="black" d="M157.17,-379.77C221.87,-386.42 451.37,-410.03 530.75,-418.2"/>
<polygon fill="black" stroke="black" points="530.62,-421.7 540.92,-419.24 531.33,-414.74 530.62,-421.7"/>
<text text-anchor="middle" x="337.5" y="-403.8" font-family="Helvetica,Arial,sans-serif" font-size="14.00">0/811</text>
</g>
<!-- 6 -->
<g id="node6" class="node">
<title>6</title>
<ellipse fill="none" stroke="black" cx="680" cy="-456" rx="18" ry="18"/>
<text text-anchor="middle" x="680" y="-452.3" font-family="Helvetica,Arial,sans-serif" font-size="14.00">6</text>
</g>
<!-- 1&#45;&gt;6 -->
<g id="edge16" class="edge">
<title>1&#45;&gt;6</title>
<path fill="none" stroke="black" d="M146.92,-394.39C152.9,-406.99 162.53,-424.2 175,-436 208.07,-467.29 219.97,-484 265.5,-484 265.5,-484 265.5,-484 560,-484 592.72,-484 629.2,-473.84 653.03,-465.76"/>
<polygon fill="black" stroke="black" points="654.46,-468.97 662.73,-462.35 652.13,-462.37 654.46,-468.97"/>
<text text-anchor="middle" x="412.5" y="-487.8" font-family="Helvetica,Arial,sans-serif" font-size="14.00">0/954</text>
</g>
<!-- 5 -->
<g id="node8" class="node">
<title>5</title>
<ellipse fill="none" stroke="black" cx="266.5" cy="-251" rx="18" ry="18"/>
<text text-anchor="middle" x="266.5" y="-247.3" font-family="Helvetica,Arial,sans-serif" font-size="14.00">5</text>
</g>
<!-- 1&#45;&gt;5 -->
<g id="edge17" class="edge">
<title>1&#45;&gt;5</title>
<path fill="none" stroke="black" d="M148.76,-362.41C155.15,-351.91 164.5,-338.17 175,-328 193.69,-309.91 204.14,-312.8 224,-296 232.22,-289.04 240.44,-280.54 247.36,-272.81"/>
<polygon fill="black" stroke="black" points="250.39,-274.67 254.31,-264.83 245.11,-270.07 250.39,-274.67"/>
<text text-anchor="middle" x="199.5" y="-331.8" font-family="Helvetica,Arial,sans-serif" font-size="14.00">879/879</text>
</g>
<!-- 3&#45;&gt;9 -->
<g id="edge18" class="edge">
<title>3&#45;&gt;9</title>
<path fill="none" stroke="black" d="M783.16,-521.94C760.2,-526.96 717.73,-535 681,-535 138,-535 138,-535 138,-535 73.59,-535 39.54,-450.03 26.05,-405.11"/>
<polygon fill="black" stroke="black" points="29.38,-404.05 23.26,-395.4 22.65,-405.98 29.38,-404.05"/>
<text text-anchor="middle" x="412.5" y="-538.8" font-family="Helvetica,Arial,sans-serif" font-size="14.00">433/1053</text>
</g>
<!-- 3&#45;&gt;6 -->
<g id="edge19" class="edge">
<title>3&#45;&gt;6</title>
<path fill="none" stroke="black" d="M794.33,-501.18C788.96,-488.1 779.54,-470.75 765,-462 747.99,-451.76 725.38,-450.7 707.91,-451.96"/>
<polygon fill="black" stroke="black" points="707.39,-448.49 697.79,-452.98 708.09,-455.45 707.39,-448.49"/>
<text text-anchor="middle" x="740.5" y="-465.8" font-family="Helvetica,Arial,sans-serif" font-size="14.00">0/433</text>
</g>
<!-- 4&#45;&gt;9 -->
<g id="edge20" class="edge">
<title>4&#45;&gt;9</title>
<path fill="none" stroke="black" d="M543.59,-98.9C518.43,-82.28 464.32,-51 413.5,-51 138,-51 138,-51 138,-51 74.68,-51 35.26,-270.29 23.06,-349.71"/>
<polygon fill="black" stroke="black" points="19.55,-349.54 21.52,-359.95 26.47,-350.59 19.55,-349.54"/>
<text text-anchor="middle" x="266.5" y="-54.8" font-family="Helvetica,Arial,sans-serif" font-size="14.00">0/766</text>
</g>
<!-- 4&#45;&gt;5 -->
<g id="edge21" class="edge">
<title>4&#45;&gt;5</title>
<path fill="none" stroke="black" d="M540.87,-105.81C509.29,-100.56 439.98,-92 384,-106 347.35,-115.16 334.15,-117.81 309,-146 289.31,-168.07 278.41,-200.6 272.78,-223.59"/>
<polygon fill="black" stroke="black" points="269.35,-222.89 270.56,-233.41 276.18,-224.44 269.35,-222.89"/>
<text text-anchor="middle" x="412.5" y="-109.8" font-family="Helvetica,Arial,sans-serif" font-size="14.00">0/1106</text>
</g>
<!-- 2 -->
<g id="node9" class="node">
<title>2</title>
<ellipse fill="none" stroke="black" cx="412.5" cy="-199" rx="18" ry="18"/>
<text text-anchor="middle" x="412.5" y="-195.3" font-family="Helvetica,Arial,sans-serif" font-size="14.00">2</text>
</g>
<!-- 4&#45;&gt;2 -->
<g id="edge22" class="edge">
<title>4&#45;&gt;2</title>
<path fill="none" stroke="black" d="M552.64,-126.01C547.33,-140.12 537.82,-159.65 523,-171 499.22,-189.21 464.88,-195.66 441.01,-197.9"/>
<polygon fill="black" stroke="black" points="440.58,-194.42 430.86,-198.66 441.1,-201.4 440.58,-194.42"/>
<text text-anchor="middle" x="491" y="-199.8" font-family="Helvetica,Arial,sans-serif" font-size="14.00">556/1364</text>
</g>
<!-- 7&#45;&gt;1 -->
<g id="edge4" class="edge">
<title>7&#45;&gt;1</title>
<path fill="none" stroke="black" d="M541.39,-424.98C486.33,-437.3 305.89,-470.72 175,-414 168.12,-411.02 161.91,-405.98 156.7,-400.6"/>
<polygon fill="black" stroke="black" points="159.02,-397.93 149.82,-392.67 153.74,-402.52 159.02,-397.93"/>
<text text-anchor="middle" x="337.5" y="-449.8" font-family="Helvetica,Arial,sans-serif" font-size="14.00">811/811</text>
</g>
<!-- 7&#45;&gt;6 -->
<g id="edge5" class="edge">
<title>7&#45;&gt;6</title>
<path fill="none" stroke="black" d="M576.6,-415.96C594.16,-411.58 622.27,-407.3 644,-417 651.71,-420.44 658.43,-426.51 663.87,-432.86"/>
<polygon fill="black" stroke="black" points="661.16,-435.08 670.04,-440.86 666.7,-430.8 661.16,-435.08"/>
<text text-anchor="middle" x="619.5" y="-420.8" font-family="Helvetica,Arial,sans-serif" font-size="14.00">624/837</text>
</g>
<!-- 0 -->
<g id="node7" class="node">
<title>0</title>
<ellipse fill="none" stroke="black" cx="412.5" cy="-287" rx="18" ry="18"/>
<text text-anchor="middle" x="412.5" y="-283.3" font-family="Helvetica,Arial,sans-serif" font-size="14.00">0</text>
</g>
<!-- 7&#45;&gt;0 -->
<g id="edge6" class="edge">
<title>7&#45;&gt;0</title>
<path fill="none" stroke="black" d="M557.82,-402.71C556.52,-377.49 550.24,-332.38 523,-308 500.63,-287.99 465.19,-284.51 440.72,-284.88"/>
<polygon fill="black" stroke="black" points="440.51,-281.39 430.65,-285.26 440.77,-288.38 440.51,-281.39"/>
<text text-anchor="middle" x="491" y="-311.8" font-family="Helvetica,Arial,sans-serif" font-size="14.00">0/1435</text>
</g>
<!-- 6&#45;&gt;1 -->
<g id="edge11" class="edge">
<title>6&#45;&gt;1</title>
<path fill="none" stroke="black" d="M671.54,-439.81C665.63,-428.82 656.31,-414.91 644,-407 618.48,-390.6 607.07,-398.01 577,-394 421.31,-373.25 381.05,-379.53 224,-377 202.23,-376.65 196.78,-376.69 175,-377 172.45,-377.04 169.79,-377.09 167.13,-377.15"/>
<polygon fill="black" stroke="black" points="166.99,-373.65 157.09,-377.41 167.18,-380.65 166.99,-373.65"/>
<text text-anchor="middle" x="412.5" y="-383.8" font-family="Helvetica,Arial,sans-serif" font-size="14.00">191/954</text>
</g>
<!-- 6&#45;&gt;3 -->
<g id="edge12" class="edge">
<title>6&#45;&gt;3</title>
<path fill="none" stroke="black" d="M694.53,-466.65C700.85,-471.37 708.6,-476.79 716,-481 734.69,-491.64 757.03,-501.35 773.97,-508.15"/>
<polygon fill="black" stroke="black" points="773.15,-511.59 783.73,-511.99 775.71,-505.07 773.15,-511.59"/>
<text text-anchor="middle" x="740.5" y="-506.8" font-family="Helvetica,Arial,sans-serif" font-size="14.00">433/433</text>
</g>
<!-- 6&#45;&gt;7 -->
<g id="edge13" class="edge">
<title>6&#45;&gt;7</title>
<path fill="none" stroke="black" d="M662.55,-451.44C645.58,-446.7 618.39,-439.02 595,-432 592.14,-431.14 589.15,-430.23 586.18,-429.31"/>
<polygon fill="black" stroke="black" points="586.94,-425.88 576.35,-426.24 584.85,-432.56 586.94,-425.88"/>
<text text-anchor="middle" x="619.5" y="-448.8" font-family="Helvetica,Arial,sans-serif" font-size="14.00">0/837</text>
</g>
<!-- 0&#45;&gt;7 -->
<g id="edge25" class="edge">
<title>0&#45;&gt;7</title>
<path fill="none" stroke="black" d="M426.97,-297.8C435.98,-305 448.15,-314.64 459,-323 487.17,-344.7 498.27,-345.45 523,-371 530.55,-378.8 537.66,-388.36 543.47,-397.03"/>
<polygon fill="black" stroke="black" points="540.66,-399.12 549.03,-405.62 546.54,-395.32 540.66,-399.12"/>
<text text-anchor="middle" x="491" y="-374.8" font-family="Helvetica,Arial,sans-serif" font-size="14.00">1435/1435</text>
</g>
<!-- 0&#45;&gt;5 -->
<g id="edge27" class="edge">
<title>0&#45;&gt;5</title>
<path fill="none" stroke="black" d="M396.28,-279.15C387.61,-274.98 376.43,-270.08 366,-267 342.34,-260 314.52,-255.84 294.5,-253.52"/>
<polygon fill="black" stroke="black" points="294.84,-250.04 284.52,-252.45 294.09,-257 294.84,-250.04"/>
<text text-anchor="middle" x="337.5" y="-270.8" font-family="Helvetica,Arial,sans-serif" font-size="14.00">343/343</text>
</g>
<!-- 8 -->
<g id="node10" class="node">
<title>8</title>
<ellipse fill="none" stroke="black" cx="559" cy="-250" rx="18" ry="18"/>
<text text-anchor="middle" x="559" y="-246.3" font-family="Helvetica,Arial,sans-serif" font-size="14.00">8</text>
</g>
<!-- 0&#45;&gt;8 -->
<g id="edge26" class="edge">
<title>0&#45;&gt;8</title>
<path fill="none" stroke="black" d="M421.49,-271.11C429.11,-257.91 441.96,-240.02 459,-232 484.74,-219.89 495.35,-225.31 523,-232 526.74,-232.91 530.53,-234.28 534.16,-235.88"/>
<polygon fill="black" stroke="black" points="532.78,-239.1 543.28,-240.46 535.91,-232.85 532.78,-239.1"/>
<text text-anchor="middle" x="491" y="-235.8" font-family="Helvetica,Arial,sans-serif" font-size="14.00">0/464</text>
</g>
<!-- 5&#45;&gt;1 -->
<g id="edge7" class="edge">
<title>5&#45;&gt;1</title>
<path fill="none" stroke="black" d="M248.19,-252.28C228.06,-254.66 195.04,-261.48 175,-281 156.15,-299.36 147.41,-328.6 143.38,-350.19"/>
<polygon fill="black" stroke="black" points="139.92,-349.65 141.76,-360.09 146.83,-350.78 139.92,-349.65"/>
<text text-anchor="middle" x="199.5" y="-284.8" font-family="Helvetica,Arial,sans-serif" font-size="14.00">0/879</text>
</g>
<!-- 5&#45;&gt;4 -->
<g id="edge8" class="edge">
<title>5&#45;&gt;4</title>
<path fill="none" stroke="black" d="M273.73,-234.47C280.31,-219.11 292.09,-196.62 309,-183 375.93,-129.07 481.21,-114.43 530.64,-110.46"/>
<polygon fill="black" stroke="black" points="531.14,-113.94 540.86,-109.73 530.64,-106.95 531.14,-113.94"/>
<text text-anchor="middle" x="412.5" y="-144.8" font-family="Helvetica,Arial,sans-serif" font-size="14.00">0/1106</text>
</g>
<!-- 5&#45;&gt;0 -->
<g id="edge9" class="edge">
<title>5&#45;&gt;0</title>
<path fill="none" stroke="black" d="M278.72,-264.28C286.34,-272.22 297.16,-281.61 309,-286 333.41,-295.05 363.39,-294.09 384.61,-291.6"/>
<polygon fill="black" stroke="black" points="385.1,-295.06 394.54,-290.24 384.16,-288.12 385.1,-295.06"/>
<text text-anchor="middle" x="337.5" y="-297.8" font-family="Helvetica,Arial,sans-serif" font-size="14.00">0/343</text>
</g>
<!-- 5&#45;&gt;2 -->
<g id="edge10" class="edge">
<title>5&#45;&gt;2</title>
<path fill="none" stroke="black" d="M274.48,-234.61C281.17,-221.23 292.68,-203.22 309,-195 332.78,-183.02 363.75,-186.4 385.4,-191.28"/>
<polygon fill="black" stroke="black" points="384.66,-194.71 395.21,-193.74 386.36,-187.92 384.66,-194.71"/>
<text text-anchor="middle" x="337.5" y="-198.8" font-family="Helvetica,Arial,sans-serif" font-size="14.00">0/1054</text>
</g>
<!-- 2&#45;&gt;4 -->
<g id="edge23" class="edge">
<title>2&#45;&gt;4</title>
<path fill="none" stroke="black" d="M425.03,-185.66C435.79,-173.46 451.33,-156.65 459,-152 484.37,-136.62 496.22,-145.77 523,-133 527.31,-130.95 531.67,-128.4 535.79,-125.73"/>
<polygon fill="black" stroke="black" points="538.06,-128.42 544.31,-119.87 534.09,-122.66 538.06,-128.42"/>
<text text-anchor="middle" x="491" y="-155.8" font-family="Helvetica,Arial,sans-serif" font-size="14.00">0/1364</text>
</g>
<!-- 2&#45;&gt;5 -->
<g id="edge24" class="edge">
<title>2&#45;&gt;5</title>
<path fill="none" stroke="black" d="M395.1,-204.92C370.26,-213.89 322.88,-231 293.37,-241.66"/>
<polygon fill="black" stroke="black" points="291.96,-238.45 283.74,-245.14 294.33,-245.03 291.96,-238.45"/>
<text text-anchor="middle" x="337.5" y="-239.8" font-family="Helvetica,Arial,sans-serif" font-size="14.00">556/1054</text>
</g>
<!-- 8&#45;&gt;0 -->
<g id="edge28" class="edge">
<title>8&#45;&gt;0</title>
<path fill="none" stroke="black" d="M540.99,-252.59C521.11,-255.82 487.32,-261.9 459,-270 452.4,-271.89 445.4,-274.29 438.92,-276.69"/>
<polygon fill="black" stroke="black" points="437.37,-273.54 429.3,-280.39 439.89,-280.07 437.37,-273.54"/>
<text text-anchor="middle" x="491" y="-273.8" font-family="Helvetica,Arial,sans-serif" font-size="14.00">0/464</text>
</g>
</g>
</svg>
